<svg width="153" height="152" viewBox="0 0 153 152" fill="none" xmlns="http://www.w3.org/2000/svg">
<path d="M114.5 60.5C114.5 89.713 90.6056 113.5 61 113.5C31.3944 113.5 7.5 89.713 7.5 60.5C7.5 31.287 31.3944 7.5 61 7.5C90.6056 7.5 114.5 31.287 114.5 60.5Z" stroke="#FFD630" stroke-width="15"/>
<path d="M140 149C142.964 151.893 147.713 151.836 150.606 148.872C153.499 145.908 153.442 141.16 150.478 138.266L140 149ZM98.0002 108L140 149L150.478 138.266L108.478 97.2664L98.0002 108Z" fill="#FFD630"/>
<path d="M61.5 33V87" stroke="#FFD630" stroke-width="15" stroke-linecap="round"/>
<path d="M88.4971 60.3989L34.503 59.6011" stroke="#FFD630" stroke-width="15" stroke-linecap="round"/>
</svg>
